PathFileType	4	(X/Y/Z)	Patient4_TMGait_0pt4_03_left_01.trc.trc
DataRate	CameraRate	NumFrames	NumMarkers	Units	OrigDataRate	OrigDataStartFrame	OrigNumFrames
75.675675675676	75.675675675676	6	33	mm	75.675675675676	71	       141
Frame#	Time	Sacral			L.Shoulder			Chest			R.Shoulder			Neck			R.ASIS			L.ASIS			R.Thigh.Superior			R.Thigh.Lateral			R.Thigh.Inferior			R.Patella			L.Thigh.Superior			L.Thigh.Lateral			L.Thigh.Inferior			L.Patella			L.Shank.Superior			L.Shank.Lateral			L.Shank.Inferior			R.Shank.Superior			R.Shank.Lateral			R.Shank.Inferior			R.Heel			R.Midfoot.Superior			R.Midfoot.Lateral			R.Toe			L.Heel			L.Midfoot.Lateral			L.Midfoot.Superior			L.Toe			L.Elbow			L.Wrist			R.Elbow			R.Wrist			
		X1	Y1	Z1	X2	Y2	Z2	X3	Y3	Z3	X4	Y4	Z4	X5	Y5	Z5	X6	Y6	Z6	X7	Y7	Z7	X8	Y8	Z8	X9	Y9	Z9	X10	Y10	Z10	X11	Y11	Z11	X12	Y12	Z12	X13	Y13	Z13	X14	Y14	Z14	X15	Y15	Z15	X16	Y16	Z16	X17	Y17	Z17	X18	Y18	Z18	X19	Y19	Z19	X20	Y20	Z20	X21	Y21	Z21	X22	Y22	Z22	X23	Y23	Z23	X24	Y24	Z24	X25	Y25	Z25	X26	Y26	Z26	X27	Y27	Z27	X28	Y28	Z28	X29	Y29	Z29	X30	Y30	Z30	X31	Y31	Z31	X32	Y32	Z32	X33	Y33	Z33	

71	1.755000000000	784.982343576954	1006.917577211797	435.530640264176	982.150418068296	1429.449042773846	256.330760665814	1066.232655155174	1366.588762776944	429.901428931737	964.376910694698	1444.068888808337	592.007252749944	942.316560103734	1495.587062868985	409.839795646403	1004.174824900227	944.424804624755	573.641664644503	1011.461147094281	962.639052282870	296.679637149514	1069.010223805977	761.211081706610	551.593454957722	1015.581541398277	644.114563802279	625.823081623661	1104.626529017683	600.231457705943	550.035439730231	1131.629833791711	518.855945198853	568.197517635487	1021.348107408165	736.968659969253	325.469531508565	913.810029235285	637.917286604771	254.460291085984	975.639125406370	547.770628273489	320.766297039483	963.134448998285	483.369458252297	328.707416598630	935.244634766722	415.238822443996	318.539459069067	841.795506813403	305.045188306253	262.825421018433	885.912974250279	191.445603123025	336.869078384452	1112.237373812302	430.671323176028	580.644959094068	1052.994754506453	321.759993244118	646.736984356924	1118.137307792940	231.034327772162	598.361873543738	1018.042868555482	48.077679168938	576.639973328640	1182.004896388401	116.074683206599	611.005844592098	1102.205655593106	45.844722382752	650.148512107024	1306.223277090754	77.591783227335	640.581584036407	754.479899473152	38.591768839056	380.017243262983	828.082417068836	34.190829354134	298.928028332368	911.254436178926	95.410005041141	326.301914808918	1040.174749420529	43.976474303932	298.535813110910	1046.661235847103	1103.382498627092	104.476612808699	1302.318469237945	1061.614836046706	118.251430457391	829.727566472123	1127.870456899558	706.747126491160	816.005183772881	868.086427348142	730.674425777734	
72	1.768214285714	786.846681607706	1005.665229642672	438.272845516355	981.802064203784	1428.667341130219	258.961277217828	1066.516308041082	1366.262675568250	432.389602079945	964.639372374135	1443.330604467176	594.696179852493	942.121637720959	1494.729470413718	412.551532515665	1006.394180173734	942.983176995735	575.602796492599	1012.943334320489	962.243896622908	298.740215559141	1069.841976487208	757.921159096157	553.277001748385	1013.337521574022	640.907033421814	625.687386629605	1102.405346356116	596.892830603761	550.191677988815	1127.709457288948	515.632213822007	567.078786031628	1020.991887499467	735.887426265252	326.491925554843	911.753351341786	637.968503441498	255.764629145392	972.841956172533	547.063616559357	321.496433178034	959.992332901712	482.671286224223	329.248582710750	931.538464503884	415.002255795819	319.125804873393	837.219127658809	305.481594766075	263.475249641690	880.991517402887	191.320861754876	336.959103905708	1108.513741219543	427.176576500146	579.310205317036	1048.799611396707	317.939314717764	644.285585911752	1114.084178558760	227.533383813485	595.637734842313	1013.532706028405	45.984651405962	572.772039954609	1177.924983726318	112.581119814981	607.727384361933	1097.370965464243	43.214424340038	646.622627797266	1301.695513321345	72.693275417173	637.428719592096	749.158650267642	38.574945725174	379.995977692927	822.746623890702	34.192413112269	298.940520400510	905.958434842965	95.366451649237	326.265471092152	1034.832805178990	43.801359453392	298.518406633289	1046.526227994973	1102.044889394217	108.088303884899	1302.683519024672	1064.457788113843	121.216347307636	829.641003222933	1127.457690500434	709.221490385217	816.858369814153	867.374146987402	731.930324649962	
73	1.781428571429	788.837490944857	1004.359680624341	441.247024408190	981.333069173527	1427.956706839907	261.768659720977	1066.803704784845	1366.032318701427	435.011827449732	964.923261571964	1442.552929513345	597.598171447130	941.878224061378	1493.906762698142	415.468036621686	1008.809552424770	941.662716718939	577.649107692999	1014.508760484042	961.825309358980	300.940585889303	1071.098213653814	754.807959213581	554.960344989917	1011.584886336576	638.016836402880	625.565794873288	1100.578258708624	593.903360041504	550.217192361411	1124.158521869734	512.522844858861	565.887441770980	1020.940744018792	734.838085140843	327.676407281396	910.096938688756	637.991644305848	257.299842307523	970.550451502353	546.347116676651	322.425190441577	957.432596960311	481.871499497935	330.000150070004	928.293523019473	414.674012592296	319.897215931114	832.953553815841	305.971589265888	264.291113387696	876.234281348803	191.158643150277	337.130198702212	1104.929896951970	423.786980409839	578.028428676353	1044.466033384503	314.466238529434	642.058919986718	1109.460363754846	224.123079966939	593.082194180208	1007.734652898187	44.359999976790	569.394533131377	1172.822179375351	109.213993980257	604.710709559882	1091.324828616620	40.997102784298	643.537825037059	1296.073500194874	67.567771606892	634.407464365230	743.831109425823	38.583113239576	379.958595425792	817.424897953712	34.206371841330	298.961961081432	900.680436371384	95.333507914557	326.248166949070	1029.513366024575	43.583330159177	298.506358841133	1045.994791797587	1100.625694481779	111.901809797849	1302.509220589813	1066.138369683399	124.239434496211	830.438851610885	1126.519834554922	711.874200741062	819.272068972134	866.099468289225	733.270730784946	
74	1.794642857143	790.892850038079	1003.081362294557	444.397960343036	980.805467658732	1427.369305244104	264.740365327699	1067.113570713631	1365.917607682404	437.764480587008	965.247161990905	1441.783689616120	600.693471492937	941.624142268960	1493.172888575318	418.572405143563	1011.324102844865	940.540938432398	579.800041735733	1016.121752564105	961.414752142207	303.284997250745	1072.691404332988	752.021905810992	556.656944173269	1010.393641186783	635.590657608388	625.572619608824	1099.200369179911	591.400168977380	550.208457077506	1121.083221641824	509.687556827086	564.775384414669	1021.219369649069	733.866668318274	329.047078572602	908.915008612010	637.991771000868	259.076942335250	968.864191032119	545.638369139749	323.567669814130	955.561152851176	480.973562595468	330.973648875641	925.601602292754	414.250124056445	320.859390778289	829.074633793132	306.535293641356	265.276475125044	871.681850249588	190.971665739768	337.382027045037	1101.660064465456	420.681894594989	576.937671899474	1040.309990314854	311.471589515357	640.260053133399	1104.620306096966	220.977330219668	590.852357988793	1001.182808555893	43.179075628080	566.654734289494	1167.124029258944	106.173140011917	602.124520887298	1084.604195516880	39.255337900960	641.030312671239	1289.845564483499	62.635657237849	631.688717556678	738.502548925269	38.661305333611	379.894759007440	812.128175709698	34.246530317163	298.989216760407	895.443866530474	95.319353198781	326.240397674687	1024.231604580072	43.310981071759	298.495816633790	1045.043887921180	1099.168488826449	115.900325074432	1301.803079223349	1066.650589853140	127.312627263829	832.153863709256	1125.100323645506	714.704121400591	823.258291881669	864.331879833373	734.711065547328	
75	1.807857142857	792.947922417702	1001.920775960668	447.671926742945	980.281659748127	1426.960970956532	267.858696693954	1067.459790026220	1365.940693674403	440.639496211875	965.624304480439	1441.080791241396	603.953546954476	941.390951441513	1492.584326178871	421.840519954927	1013.841198359174	939.691224400502	582.083188630802	1017.747274485221	961.054133648902	305.779731534332	1074.528911663757	749.711588443786	558.390344379255	1009.826107253755	633.745210951092	625.827227914913	1098.320572838996	589.486157396218	550.281922076328	1118.571314111456	507.259991209723	563.913795179838	1021.838876503791	733.027138647441	330.625919026641	908.265372237933	637.981182908176	261.096346361163	967.872178243170	544.963425060951	324.923776651391	954.468638568865	479.990473923570	332.156245729994	923.541953423626	413.737366932894	321.998502982652	825.646688234307	307.201880804182	266.423744981240	867.374515301098	190.785822364559	337.704301225863	1098.844114572592	418.006535876528	576.167978241856	1036.591135212533	309.055591316075	639.061594833292	1099.857460965402	218.240902924027	589.076196330134	994.341740300414	42.401819975159	564.626019196061	1161.186538777381	103.601537870076	600.092278005372	1077.664943606663	38.002392667443	639.171253522295	1283.416527962361	58.242239030922	629.419653593341	733.183083245593	38.873241377085	379.793650533944	806.868703097169	34.333637305756	299.016884510588	890.279517274964	95.333340630682	326.225954970037	1019.001682294987	42.976774379688	298.481364605096	1043.654506899942	1097.727363722131	120.071268780343	1300.559665526003	1065.991630754039	130.426549898449	834.800852868151	1123.273294806622	717.707168329704	828.824978921164	862.175322896538	736.262946814179	
76	1.821071428571	794.942387060048	1000.964823293227	451.025369912808	979.816035275110	1426.781316849200	271.102092252058	1067.848907996953	1366.120970326457	443.624734606445	966.060222170366	1440.504068301791	607.343394167079	941.198782011666	1492.190541264083	425.242304980212	1016.275729577405	939.169251105722	584.531707723099	1019.355602871277	960.791347675410	308.432353903269	1076.521111485865	747.994421762029	560.194868321581	1009.915754121266	632.542742207950	626.436869770995	1097.965007119218	588.205592322381	550.561030864335	1116.669234137447	505.322526019821	563.466893315375	1022.796647911923	732.376174190305	332.429843270005	908.188493372118	637.976631795637	263.345637750926	967.651872990010	544.354242223714	326.475428469288	954.229739044213	478.942286038336	333.506868834735	922.179953072152	413.151968584739	323.279601555284	822.721712882795	308.008082230836	267.713041675033	863.353012555542	190.639428100184	338.076219713115	1096.560705972156	415.846882795551	575.820102737801	1033.470217135660	307.264246009952	638.573454899496	1095.369430264066	216.003620721058	587.831200637583	987.560617838405	41.970210733748	563.302330625744	1155.264190343787	101.569088362742	598.668720217923	1070.840672328873	37.201717596107	637.959754866118	1277.075193991376	54.613007178288	627.693191270263	727.888659653430	39.301271873201	379.645089396273	801.659392054887	34.496652720258	299.037315967730	885.224931048544	95.385006179835	326.182943617979	1013.834610358646	42.578144551108	298.456871774241	1041.815475430348	1096.361629176964	124.403926122867	1298.763566770458	1064.160160310177	133.569788131064	838.368362604808	1121.136724395758	720.876258770369	835.971036645373	859.761359884115	737.935442384771	
